<svg width="25" height="24" viewBox="0 0 25 24" fill="none" xmlns="http://www.w3.org/2000/svg">
<path d="M24.9908 4.58697C24.8115 5.18824 24.6288 5.78287 24.4592 6.38413C23.6612 9.22325 22.8643 12.0624 22.0685 14.9015C22.0541 15.0043 22.0199 15.1032 21.9677 15.1924C21.9155 15.2816 21.8465 15.3594 21.7645 15.4212C21.6826 15.483 21.5894 15.5277 21.4904 15.5525C21.3914 15.5773 21.2886 15.5819 21.1878 15.5659C17.0935 15.5659 13.0013 15.5659 8.91125 15.5659C8.79838 15.5482 8.68302 15.572 8.58568 15.6328C8.48835 15.6936 8.41533 15.7876 8.37961 15.8981C8.10238 16.5359 8.41549 17.0674 9.10368 17.0674H21.1552C21.7358 17.0674 22.0783 17.3464 22.075 17.8181C22.0717 18.2898 21.7488 18.5589 21.1454 18.5589H18.7547C20.0789 18.9874 20.7736 19.9707 20.591 21.0968C20.5217 21.6408 20.2584 22.1399 19.8512 22.499C19.4441 22.8582 18.9215 23.0524 18.383 23.0446C17.8444 23.0368 17.3275 22.8276 16.9305 22.4568C16.5336 22.086 16.2843 21.5795 16.2302 21.0337C16.1259 20.1468 16.5923 18.9342 18.073 18.5722H11.3933C12.6458 18.9442 13.3503 19.9308 13.21 21.0503C13.1478 21.5957 12.891 22.0989 12.4884 22.464C12.0858 22.8292 11.5655 23.031 11.0264 23.031C10.4873 23.031 9.96696 22.8292 9.56436 22.464C9.16177 22.0989 8.90496 21.5957 8.84276 21.0503C8.68621 19.9275 9.39071 18.9542 10.6301 18.5522H8.99932C8.49462 18.5556 8.0043 18.3811 7.61141 18.0585C7.21852 17.7358 6.9472 17.2847 6.84341 16.7817C6.71576 16.2512 6.80023 15.6908 7.07825 15.2237C7.16764 15.0759 7.22238 14.9091 7.23822 14.7363C7.25406 14.5634 7.23056 14.3892 7.16957 14.2271C6.04759 10.2696 4.93431 6.30994 3.82972 2.34802C3.81341 2.28158 3.79058 2.22181 3.76123 2.12548H0.802973C0.701228 2.13528 0.598596 2.1233 0.501649 2.09036C0.404702 2.05742 0.315572 2.00425 0.23998 1.9342C0.164389 1.86415 0.104002 1.7788 0.0626775 1.6836C0.0213526 1.5884 0 1.48542 0 1.38133C0 1.27724 0.0213526 1.17431 0.0626775 1.07911C0.104002 0.983911 0.164389 0.898558 0.23998 0.828508C0.315572 0.758458 0.404702 0.705284 0.501649 0.672348C0.598596 0.639411 0.701228 0.627428 0.802973 0.637231H4.24393C4.43322 0.616804 4.62302 0.670774 4.77457 0.788079C4.92611 0.905384 5.02797 1.07718 5.05933 1.2684C5.28112 2.04572 5.49638 2.8264 5.71164 3.62033H6.0378C12.0326 3.62033 18.0295 3.62033 24.0287 3.62033C24.2255 3.59457 24.4253 3.63432 24.5981 3.73371C24.7709 3.8331 24.9076 3.98675 24.9876 4.17174L24.9908 4.58697ZM23.2818 5.15172H6.15196L8.65359 14.0743H20.7867L23.2818 5.15172ZM11.0215 21.5453C11.1672 21.5466 11.31 21.5037 11.4316 21.4221C11.5533 21.3405 11.6484 21.2238 11.7047 21.087C11.7611 20.9501 11.7762 20.7993 11.7481 20.6537C11.72 20.5081 11.6499 20.3743 11.5469 20.2694C11.4439 20.1644 11.3125 20.0931 11.1696 20.0645C11.0266 20.0359 10.8785 20.0512 10.7442 20.1086C10.6098 20.166 10.4953 20.2628 10.4151 20.3868C10.335 20.5107 10.2929 20.6561 10.2942 20.8045C10.2975 20.9999 10.3752 21.1863 10.5109 21.3245C10.6466 21.4627 10.8296 21.5419 11.0215 21.5453ZM19.1298 20.7945C19.1291 20.6463 19.0852 20.5016 19.0036 20.3788C18.9219 20.2561 18.8063 20.1609 18.6714 20.1052C18.5365 20.0496 18.3884 20.036 18.2459 20.0663C18.1034 20.0966 17.973 20.1694 17.8712 20.2754C17.7695 20.3814 17.701 20.5158 17.6744 20.6616C17.6478 20.8073 17.6644 20.9578 17.7221 21.094C17.7797 21.2301 17.8758 21.3457 17.9981 21.4261C18.1204 21.5064 18.2634 21.5479 18.409 21.5453C18.6014 21.5401 18.7842 21.4588 18.9188 21.3187C19.0533 21.1785 19.129 20.9905 19.1298 20.7945Z" fill="white"/>
</svg>
